<svg width="54" height="49" viewBox="0 0 54 49" fill="none" xmlns="http://www.w3.org/2000/svg">
<g filter="url(#filter0_d_213_1665)">
<path d="M41.4066 15.6925C40.3459 16.1747 39.2026 16.4915 38.0179 16.643C39.2301 15.9129 40.1668 14.7558 40.6076 13.3645C39.4643 14.0533 38.197 14.5354 36.8608 14.8109C35.7725 13.6263 34.2435 12.9375 32.5078 12.9375C29.2706 12.9375 26.6258 15.5823 26.6258 18.8471C26.6258 19.3154 26.6809 19.77 26.7773 20.197C21.8734 19.9491 17.5066 17.5935 14.6 14.0257C14.0904 14.8936 13.8011 15.9129 13.8011 16.9874C13.8011 19.0399 14.8342 20.8582 16.4321 21.8914C15.4541 21.8914 14.5449 21.6159 13.746 21.2026V21.2439C13.746 24.1092 15.7847 26.5061 18.4847 27.0433C17.6178 27.2805 16.7078 27.3135 15.826 27.1397C16.2002 28.314 16.9329 29.3416 17.9213 30.0779C18.9096 30.8142 20.1039 31.2223 21.3361 31.2447C19.2473 32.8984 16.6581 33.7922 13.9939 33.7794C13.5256 33.7794 13.0572 33.7518 12.5889 33.6967C15.2062 35.3773 18.3193 36.3553 21.6529 36.3553C32.5078 36.3553 38.4725 27.3464 38.4725 19.5358C38.4725 19.2741 38.4725 19.0261 38.4587 18.7644C39.6158 17.9379 40.6076 16.891 41.4066 15.6925Z" fill="#1c9cea"/>
</g>
<defs>
<filter id="filter0_d_213_1665" x="0.581488" y="0.93012" width="52.8324" height="47.4325" filterUnits="userSpaceOnUse" color-interpolation-filters="sRGB">
<feFlood flood-opacity="0" result="BackgroundImageFix"/>
<feColorMatrix in="SourceAlpha" type="matrix" values="0 0 0 0 0 0 0 0 0 0 0 0 0 0 0 0 0 0 127 0" result="hardAlpha"/>
<feOffset/>
<feGaussianBlur stdDeviation="6.00369"/>
<feComposite in2="hardAlpha" operator="out"/>
<feColorMatrix type="matrix" values="0 0 0 0 0.583333 0 0 0 0 0.583333 0 0 0 0 0.583333 0 0 0 0.2 0"/>
<feBlend mode="normal" in2="BackgroundImageFix" result="effect1_dropShadow_213_1665"/>
<feBlend mode="normal" in="SourceGraphic" in2="effect1_dropShadow_213_1665" result="shape"/>
</filter>
</defs>
</svg>
